<?xml version="1.0" encoding="UTF-8"?>
<svg width="170px" height="68px" viewBox="0 0 170 68" version="1.1" xmlns="http://www.w3.org/2000/svg" xmlns:xlink="http://www.w3.org/1999/xlink">
    <title>头豹</title>
    <defs>
        <polygon id="path-1" points="0.176746032 2.6225873 36.6066667 2.6225873 36.6066667 39.5746508 0.176746032 39.5746508"></polygon>
        <polygon id="path-3" points="0.964142857 2.33466667 14.7962063 2.33466667 14.7962063 16.1904762 0.964142857 16.1904762"></polygon>
    </defs>
    <g id="网站" stroke="none" stroke-width="1" fill="none" fill-rule="evenodd">
        <g id="头豹首页备份" transform="translate(-360.000000, -75.000000)">
            <g id="编组-21" transform="translate(360.000000, 75.000000)">
                <g id="编组-20">
                    <g id="编组-22" transform="translate(0.000000, -0.000000)">
                        <g id="编组">
                            <path d="M115.167444,35.8918571 C114.096175,34.2593175 113.116651,32.5728095 112.23427,30.8296349 L120.909667,30.8296349 C122.007921,32.6510635 123.187127,34.4050317 124.444587,36.0915397 C126.023159,38.2340794 127.671889,40.363127 129.388079,42.4786825 L119.743952,42.4786825 C118.141095,40.3091587 116.611095,38.1126508 115.167444,35.8918571 M95.647127,5.60487302 L104.360302,5.60487302 C105.941571,7.9605873 107.428397,10.3702698 108.818079,12.836619 L99.8620476,12.836619 C98.6018889,10.3459841 97.1987143,7.93360317 95.647127,5.60487302 M98.2160159,36.2534444 C99.7433175,33.949 101.162683,31.5797937 102.474111,29.143127 L92.6734762,29.143127 L92.6734762,22.7155079 L105.647444,22.7155079 L106.367921,21.0694762 L97.654746,21.0694762 C96.2596667,18.6328095 94.7728413,16.2501111 93.1942698,13.9186825 L101.669984,13.9186825 C102.33919,14.7767778 102.967921,15.6591587 103.558873,16.5712222 C104.522206,18.014873 105.472048,19.4774127 106.411095,20.9480476 C107.563317,18.2442381 108.553635,15.4729683 109.382048,12.6342381 C110.051254,10.3324921 110.547762,7.99026984 110.868873,5.60487302 L119.584746,5.60487302 C119.128714,8.28439683 118.526968,10.9342381 117.77681,13.5597937 C116.894429,16.6656667 115.877127,19.7175714 114.724905,22.7155079 L129.62554,22.7155079 L129.62554,29.143127 L112.034587,29.143127 C110.855381,31.7416984 109.557444,34.2593175 108.138079,36.6932857 C106.958873,38.7278889 105.606968,40.657254 104.082365,42.4786825 L93.5180794,42.4786825 C95.228873,40.4980476 96.7939524,38.4202698 98.2160159,36.2534444" id="Fill-1" fill="#DA392B"></path>
                            <g transform="translate(132.222222, 2.943159)">
                                <mask id="mask-2" fill="white">
                                    <use xlink:href="#path-1"></use>
                                </mask>
                                <g id="Clip-4"></g>
                                <path d="M19.1762698,16.9214762 L25.6821429,16.9214762 C26.8613492,21.5006825 27.7302381,26.1338571 28.2942063,30.8183016 L21.505,30.8183016 C20.9410317,26.1581429 20.1638889,21.5276667 19.1762698,16.9214762 M20.2205556,8.28385714 C20.8061111,6.43814286 21.2378571,4.54925397 21.505,2.6225873 L28.1323016,2.6225873 L27.6897619,5.67449206 L36.6080159,5.67449206 L36.6080159,29.3719524 C36.6080159,31.3283016 36.4596032,33.2549683 36.1654762,35.1573492 C35.9523016,36.6549683 35.5637302,38.1283016 34.9997619,39.5746508 L25.4824603,39.5746508 C26.7911905,38.209254 27.7976984,36.6549683 28.4938889,34.9144921 C29.1361111,33.1497302 29.4464286,31.3013175 29.4194444,29.3719524 L29.4194444,11.4598889 L26.3648413,11.4598889 C26.0437302,12.6094127 25.6821429,13.7346508 25.2827778,14.8329048 L17.8513492,14.8329048 C18.7607143,12.7173492 19.5513492,10.5343333 20.2205556,8.28385714 M11.4642063,25.5159206 L11.4642063,24.6335397 C10.285,25.596873 9.07880952,26.479254 7.84833333,27.283381 L0.217222222,27.283381 C2.54595238,25.6508413 4.84769841,23.9643333 7.12515873,22.2238571 C8.65246032,21.098619 10.1365873,19.9059206 11.5856349,18.6484603 C11.5289683,18.2194127 11.4237302,17.7903651 11.2618254,17.3640159 C10.1905556,18.3813175 9.095,19.3311587 7.9697619,20.2162381 L0.217222222,20.2162381 C1.82277778,18.9290952 3.38785714,17.5502063 4.91785714,16.076873 C4.21896825,14.2824286 3.4418254,12.5176667 2.58642857,10.7771905 L8.36912698,10.7771905 L9.095,12.0994127 L9.85595238,11.2979841 L9.21373016,9.68973016 C9.1597619,9.74369841 9.11928571,9.77068254 9.095,9.77068254 L0.176746032,9.77068254 C3.47150794,7.68211111 6.57468254,5.31290476 9.49436508,2.66036508 L17.889127,2.66036508 C16.5264286,4.05274603 15.090873,5.33988889 13.593254,6.51909524 C13.6445238,6.70528571 13.7389683,6.86449206 13.8738889,6.9994127 L14.1140476,6.71877778 L20.6630952,6.71877778 C19.9642063,7.79004762 19.216746,8.79385714 18.412619,9.73020635 C17.3413492,11.0443333 16.2296032,12.3152857 15.077381,13.5484603 C16.0137302,14.2176667 16.777381,15.0460794 17.3683333,16.0363968 C17.902619,16.9484603 18.1724603,17.9387778 18.1724603,19.0100476 L17.8513492,31.1798889 C17.7703968,32.893381 17.3818254,34.5016349 16.6856349,35.999254 C16.0703968,37.3376667 15.2527778,38.5303651 14.2354762,39.5746508 L6.40468254,39.5746508 C7.5002381,38.5573492 8.49055556,37.4456032 9.37293651,36.2421111 C10.1257937,35.1708413 10.6870635,33.9916349 11.0621429,32.7071905 C10.0718254,33.6165556 9.03833333,34.4476667 7.9697619,35.1978254 L0.217222222,35.1978254 C2.17087302,33.7244921 4.07325397,32.1702063 5.91896825,30.5376667 C7.82134921,28.9563968 9.6697619,27.283381 11.4642063,25.5159206" id="Fill-3" fill="#DA392B" mask="url(#mask-2)"></path>
                            </g>
                            <path d="M11.6131587,36.4347778 L15.9926825,36.4347778 C15.871254,32.192873 12.4550635,28.779381 8.21046032,28.668746 L8.21046032,33.2938254 C8.42093651,34.1249365 8.84728571,34.5377937 9.49490476,35.1881111 C10.104746,35.7979524 10.8387143,36.2135079 11.6131587,36.4347778" id="Fill-19" fill="#DA392B"></path>
                            <path d="M4.5932381,36.8074286 L0.00053968254,36.8074286 C0.0760952381,41.106 3.54085714,44.5734603 7.83942857,44.6598095 L7.83942857,39.6596508 C7.60736508,38.9256825 7.208,38.6072698 6.62784127,38.0271111 C6.0395873,37.4388571 5.33530159,37.0340952 4.5932381,36.8074286" id="Fill-21" fill="#DA392B"></path>
                            <path d="M8.22449206,40.2794762 L8.22449206,44.659 C12.4636984,44.5402698 15.8798889,41.121381 15.9932222,36.8794762 L11.3654444,36.8794762 C10.5343333,37.0899524 10.1214762,37.5136032 9.47385714,38.1639206 C8.86131746,38.7737619 8.4457619,39.5050317 8.22449206,40.2794762" id="Fill-23" fill="#DA392B"></path>
                            <path d="M7.85292063,33.2606349 L7.85292063,28.6679365 C3.55165079,28.7434921 0.0841904762,32.208254 0.00053968254,36.5068254 L4.998,36.5068254 C5.73196825,36.2747619 6.05038095,35.8753968 6.63053968,35.2952381 C7.22149206,34.7069841 7.62355556,34.0053968 7.85292063,33.2606349" id="Fill-25" fill="#DA392B"></path>
                            <path d="M7.96355556,50.6473175 L10.7968889,50.6473175 C10.7186349,47.9030317 8.50593651,45.6930317 5.76165079,45.6201746 L5.76165079,48.6154127 C5.89657143,49.1496984 6.17450794,49.4195397 6.5927619,49.8404921 C6.98942857,50.2344603 7.45895238,50.5016032 7.96355556,50.6473175" id="Fill-27" fill="#DA392B"></path>
                            <path d="M3.42050794,50.8872063 L0.449555556,50.8872063 C0.498126984,53.6692698 2.74050794,55.9143492 5.51987302,55.9683175 L5.51987302,52.7329206 C5.37415873,52.258 5.1124127,52.0529206 4.73733333,51.6778413 C4.35685714,51.2973651 3.90352381,51.035619 3.42050794,50.8872063" id="Fill-29" fill="#DA392B"></path>
                            <path d="M5.47588889,48.4548571 L5.47588889,45.6215238 C2.72890476,45.6997778 0.521603175,47.9097778 0.448746032,50.6540635 L3.44398413,50.6540635 C3.97826984,50.5191429 4.24811111,50.2439048 4.66636508,49.8229524 C5.06303175,49.4289841 5.3301746,48.9567619 5.47588889,48.4548571" id="Fill-31" fill="#DA392B"></path>
                            <path d="M5.71577778,52.9954762 L5.71577778,55.969127 C8.49784127,55.9178571 10.7402222,53.6754762 10.7968889,50.8961111 L7.56149206,50.8961111 C7.08657143,51.0445238 6.88149206,51.3035714 6.5064127,51.6786508 C6.1232381,52.059127 5.86419048,52.5151587 5.71577778,52.9954762" id="Fill-33" fill="#DA392B"></path>
                            <path d="M32.2519683,53.193 L39.9775238,53.193 C39.769746,45.7076032 33.7360952,39.6820476 26.248,39.4850635 L26.248,47.6504603 C26.620381,49.113 27.3705397,49.8442698 28.5146667,50.9910952 C29.5940317,52.0677619 30.883873,52.7990317 32.2519683,53.193" id="Fill-35" fill="#DA392B"></path>
                            <g transform="translate(10.793651, 51.514587)">
                                <mask id="mask-4" fill="white">
                                    <use xlink:href="#path-3"></use>
                                </mask>
                                <g id="Clip-38"></g>
                                <path d="M9.0701746,2.33466667 L0.964142857,2.33466667 C1.09906349,9.92260317 7.21636508,16.0426032 14.7962063,16.1910159 L14.7962063,7.36720635 C14.3914444,6.07466667 13.6844603,5.51339683 12.6590635,4.488 C11.6201746,3.45180952 10.3816032,2.73673016 9.0701746,2.33466667" id="Fill-37" fill="#DA392B" mask="url(#mask-4)"></path>
                            </g>
                            <path d="M23.9484127,39.6140476 C23.8404762,39.6275397 23.7298413,39.6437302 23.6219048,39.6599206 L23.6219048,50.9096032 C23.7352381,50.7881746 23.8431746,50.6559524 23.9484127,50.5102381 L23.9484127,39.6140476 Z" id="Fill-39" fill="#DA392B"></path>
                            <path d="M24.6073651,39.5401111 C24.4967302,39.5482063 24.3860952,39.559 24.2781587,39.5697937 L24.2781587,50.007254 C24.3941905,49.8129683 24.502127,49.6078889 24.6073651,49.3974127 L24.6073651,39.5401111 Z" id="Fill-41" fill="#DA392B"></path>
                            <path d="M25.2633492,39.4966667 C25.1527143,39.5020635 25.0447778,39.5047619 24.9341429,39.5101587 L24.9341429,48.6793651 C25.052873,48.4014286 25.1635079,48.1234921 25.2633492,47.8563492 L25.2633492,39.4966667 Z" id="Fill-43" fill="#DA392B"></path>
                            <path d="M17.3815556,42.3162381 C17.2709206,42.3998889 17.1629841,42.4862381 17.0550476,42.5752857 L17.0550476,53.1935397 L17.3815556,53.1935397 L17.3815556,42.3162381 Z" id="Fill-45" fill="#DA392B"></path>
                            <path d="M23.2924286,39.7182063 C23.1844921,39.7397937 23.0738571,39.7586825 22.9659206,39.7802698 L22.9659206,51.5129683 C23.0765556,51.4185238 23.1844921,51.3240794 23.2924286,51.2242381 L23.2924286,39.7182063 Z" id="Fill-47" fill="#DA392B"></path>
                            <path d="M21.3239365,40.2319841 C21.2133016,40.2697619 21.1026667,40.3075397 20.9947302,40.3453175 L20.9947302,52.7418254 C21.1053651,52.6905556 21.216,52.6419841 21.3239365,52.5880159 L21.3239365,40.2319841 Z" id="Fill-49" fill="#DA392B"></path>
                            <path d="M20.3382063,53.0073492 C20.4488413,52.966873 20.5567778,52.9263968 20.6647143,52.8832222 L20.6647143,40.4732222 C20.5567778,40.5190952 20.4461429,40.5595714 20.3382063,40.6054444 L20.3382063,53.0073492 Z" id="Fill-51" fill="#DA392B"></path>
                            <path d="M16.3987937,53.193 L16.7253016,53.193 L16.7253016,42.8472857 C16.6146667,42.9390317 16.5040317,43.0334762 16.3987937,43.130619 L16.3987937,53.193 Z" id="Fill-53" fill="#DA392B"></path>
                            <path d="M21.9799206,40.0263651 C21.8692857,40.058746 21.7613492,40.0884286 21.6507143,40.1235079 L21.6507143,52.4120794 C21.7613492,52.3500159 21.8719841,52.285254 21.9799206,52.2204921 L21.9799206,40.0263651 Z" id="Fill-55" fill="#DA392B"></path>
                            <path d="M22.6361746,39.8550159 C22.5255397,39.882 22.4176032,39.9089841 22.3069683,39.9359683 L22.3069683,52.0086667 C22.4176032,51.9331111 22.5282381,51.8548571 22.6361746,51.7739048 L22.6361746,39.8550159 Z" id="Fill-57" fill="#DA392B"></path>
                            <path d="M14.1008254,45.8093333 C13.9874921,45.9793333 13.8768571,46.1520317 13.771619,46.3274286 L13.771619,53.1921905 L14.1008254,53.1921905 L14.1008254,45.8093333 Z" id="Fill-59" fill="#DA392B"></path>
                            <path d="M12.4591111,53.193 L12.785619,53.193 L12.785619,48.3007778 C12.6668889,48.5922063 12.556254,48.8890317 12.4591111,49.191254 L12.4591111,53.193 Z" id="Fill-61" fill="#DA392B"></path>
                            <path d="M15.4130635,44.1174286 C15.3024286,44.2388571 15.1917937,44.3629841 15.0838571,44.4925079 L15.0838571,53.1921905 L15.4130635,53.1921905 L15.4130635,44.1174286 Z" id="Fill-63" fill="#DA392B"></path>
                            <path d="M14.7570794,44.8975397 C14.643746,45.0405556 14.5358095,45.1862698 14.427873,45.3346825 L14.427873,53.1924603 L14.7570794,53.1924603 L14.7570794,44.8975397 Z" id="Fill-65" fill="#DA392B"></path>
                            <path d="M20.009,40.7535873 C19.9010635,40.8048571 19.7904286,40.8534286 19.6824921,40.9046984 L19.6824921,53.1932698 L19.7526508,53.1932698 C19.8416984,53.1689841 19.9253492,53.1393016 20.009,53.1150159 L20.009,40.7535873 Z" id="Fill-67" fill="#DA392B"></path>
                            <path d="M12.1296349,50.364254 C11.9164603,51.2763175 11.7896349,52.2207619 11.7599524,53.1921905 L12.1296349,53.1921905 L12.1296349,50.364254 Z" id="Fill-69" fill="#DA392B"></path>
                            <path d="M18.6964921,41.4400635 C18.5858571,41.5048254 18.4752222,41.5722857 18.3672857,41.639746 L18.3672857,53.1916508 L18.6964921,53.1916508 L18.6964921,41.4400635 Z" id="Fill-71" fill="#DA392B"></path>
                            <path d="M19.352746,41.0752381 C19.2421111,41.1319048 19.1341746,41.1885714 19.0235397,41.2479365 L19.0235397,53.1938095 L19.352746,53.1938095 L19.352746,41.0752381 Z" id="Fill-73" fill="#DA392B"></path>
                            <path d="M13.4421429,46.9040794 C13.3288095,47.117254 13.2181746,47.333127 13.1156349,47.5543968 L13.1156349,53.1940794 L13.4421429,53.1940794 L13.4421429,46.9040794 Z" id="Fill-75" fill="#DA392B"></path>
                            <path d="M18.0405079,41.8513016 C17.929873,41.9241587 17.8192381,42.0024127 17.7113016,42.0779683 L17.7113016,53.1927302 L18.0405079,53.1927302 L18.0405079,41.8513016 Z" id="Fill-77" fill="#DA392B"></path>
                            <path d="M15.7425397,53.193 L16.0690476,53.193 L16.0690476,43.4409365 C15.9584127,43.548873 15.8477778,43.6595079 15.7425397,43.7701429 L15.7425397,53.193 Z" id="Fill-79" fill="#DA392B"></path>
                            <path d="M35.4404127,53.849254 L35.1139048,53.849254 L35.1139048,64.2570317 C35.2245397,64.1598889 35.3351746,64.0654444 35.4404127,63.9683016 L35.4404127,53.849254 Z" id="Fill-81" fill="#DA392B"></path>
                            <path d="M33.4719206,53.849254 L33.1427143,53.849254 L33.1427143,65.6898889 C33.2533492,65.6224286 33.3639841,65.5549683 33.4719206,65.4848095 L33.4719206,53.849254 Z" id="Fill-83" fill="#DA392B"></path>
                            <path d="M39.7093016,53.849254 L39.7093016,56.3587778 C39.8712063,55.5438571 39.9683492,54.7073492 39.9818413,53.849254 L39.7093016,53.849254 Z" id="Fill-85" fill="#DA392B"></path>
                            <path d="M34.1281746,53.849254 L33.7989683,53.849254 L33.7989683,65.2689365 C33.9096032,65.193381 34.0202381,65.115127 34.1281746,65.036873 L34.1281746,53.849254 Z" id="Fill-87" fill="#DA392B"></path>
                            <path d="M32.4864603,66.0593016 C32.5970952,66.0026349 32.7050317,65.9432698 32.8156667,65.8839048 L32.8156667,53.8489841 L32.4864603,53.8489841 L32.4864603,66.0593016 Z" id="Fill-89" fill="#DA392B"></path>
                            <path d="M39.3800952,53.849254 L39.0535873,53.849254 L39.0535873,58.6416349 C39.1750159,58.3259206 39.2829524,58.0021111 39.3800952,57.6756032 L39.3800952,53.849254 Z" id="Fill-91" fill="#DA392B"></path>
                            <path d="M37.4116032,53.849254 L37.0823968,53.849254 L37.0823968,62.1630635 C37.1957302,62.0146508 37.3036667,61.8662381 37.4116032,61.715127 L37.4116032,53.849254 Z" id="Fill-93" fill="#DA392B"></path>
                            <path d="M36.425873,62.9601746 C36.5365079,62.8360476 36.6471429,62.7092222 36.7550794,62.5796984 L36.7550794,53.8503333 L36.425873,53.8503333 L36.425873,62.9601746 Z" id="Fill-95" fill="#DA392B"></path>
                            <path d="M38.7238413,53.849254 L38.3973333,53.849254 L38.3973333,60.0960794 C38.5106667,59.8748095 38.6213016,59.6508413 38.7238413,59.4214762 L38.7238413,53.849254 Z" id="Fill-97" fill="#DA392B"></path>
                            <path d="M38.0675873,53.849254 L37.738381,53.849254 L37.738381,61.2267143 C37.8517143,61.0513175 37.9623492,60.8732222 38.0675873,60.6924286 L38.0675873,53.849254 Z" id="Fill-99" fill="#DA392B"></path>
                            <path d="M34.7841587,53.849254 L34.4576508,53.849254 L34.4576508,64.7967143 C34.5682857,64.7103651 34.6762222,64.6213175 34.7841587,64.5322698 L34.7841587,53.849254 Z" id="Fill-101" fill="#DA392B"></path>
                            <path d="M30.844746,54.2853175 C30.7341111,54.3392857 30.6234762,54.3905556 30.5155397,54.4472222 L30.5155397,66.9219841 C30.6261746,66.8815079 30.7368095,66.8437302 30.844746,66.803254 L30.844746,54.2853175 Z" id="Fill-103" fill="#DA392B"></path>
                            <path d="M29.5325079,55.0600317 C29.421873,55.1409841 29.3112381,55.2219365 29.2033016,55.3055873 L29.2033016,67.308127 C29.3139365,67.2811429 29.421873,67.2541587 29.5325079,67.2244762 L29.5325079,55.0600317 Z" id="Fill-105" fill="#DA392B"></path>
                            <path d="M30.1884921,54.6331429 C30.0778571,54.6979048 29.9672222,54.7653651 29.8592857,54.8382222 L29.8592857,67.1321905 C29.9699206,67.0998095 30.0805556,67.0674286 30.1884921,67.0323492 L30.1884921,54.6331429 Z" id="Fill-107" fill="#DA392B"></path>
                            <path d="M36.0990952,53.849254 L35.7698889,53.849254 L35.7698889,63.6498889 C35.8805238,63.539254 35.9911587,63.428619 36.0990952,63.3152857 L36.0990952,53.849254 Z" id="Fill-109" fill="#DA392B"></path>
                            <path d="M31.5007302,54.0019841 C31.3900952,54.0451587 31.2821587,54.0910317 31.1742222,54.1369048 L31.1742222,66.6737302 C31.2821587,66.6278571 31.3927937,66.5846825 31.5007302,66.5388095 L31.5007302,54.0019841 Z" id="Fill-111" fill="#DA392B"></path>
                            <path d="M27.5613175,57.0312222 C27.4452857,57.193127 27.3373492,57.3577302 27.2321111,57.5250317 L27.2321111,67.6386825 C27.342746,67.6278889 27.453381,67.6170952 27.5613175,67.6036032 L27.5613175,57.0312222 Z" id="Fill-113" fill="#DA392B"></path>
                            <path d="M31.8302063,66.3874286 C31.9381429,66.3361587 32.0487778,66.2875873 32.1567143,66.233619 L32.1567143,53.8506032 L31.932746,53.8506032 C31.8976667,53.8613968 31.8652857,53.8748889 31.8302063,53.8856825 L31.8302063,66.3874286 Z" id="Fill-115" fill="#DA392B"></path>
                            <path d="M26.5755873,67.6850952 C26.6862222,67.6796984 26.7968571,67.677 26.9047937,67.6689048 L26.9047937,58.1003333 C26.7833651,58.3350952 26.6727302,58.5698571 26.5755873,58.8100159 L26.5755873,67.6850952 Z" id="Fill-117" fill="#DA392B"></path>
                            <path d="M28.2173016,56.2235873 C28.1039683,56.3477143 27.9960317,56.4745397 27.8907937,56.6040635 L27.8907937,67.559619 C27.9987302,67.5434286 28.1093651,67.5272381 28.2173016,67.5110476 L28.2173016,56.2235873 Z" id="Fill-119" fill="#DA392B"></path>
                            <path d="M28.8735556,55.5792063 C28.7629206,55.6763492 28.6549841,55.7788889 28.5470476,55.884127 L28.5470476,67.4495238 C28.6549841,67.4306349 28.765619,67.4090476 28.8735556,67.3847619 L28.8735556,55.5792063 Z" id="Fill-121" fill="#DA392B"></path>
                            <path d="M47.870381,8.92877778 L42.6327619,10.5262381 C42.6327619,10.5262381 48.4559365,7.47973016 50.4095873,6.57846032 C52.3659365,5.67719048 53.709746,7.09655556 53.709746,7.09655556 C51.3135556,10.8608413 49.2573651,8.96925397 47.870381,8.92877778 M70.6260952,40.8294127 C70.1376825,40.3625873 69.7760952,38.4656032 69.7760952,38.4656032 C70.6449841,34.9495714 69.3092698,32.1216349 69.3092698,32.1216349 C69.1257778,37.8449683 67.0722857,38.3711587 67.0722857,38.3711587 C67.0722857,38.3711587 65.3372063,38.8865556 66.2519683,37.2756032 C67.1667302,35.6673492 66.0873651,30.2894127 66.0873651,30.2894127 C66.3032381,32.6667143 61.6781587,38.8136984 61.6781587,38.8136984 C61.6781587,38.8136984 53.7259365,38.3630635 53.4426032,26.2957619 C53.1619683,14.2257619 62.8735556,15.1108413 62.8735556,15.1108413 L65.858,20.4429048 L65.4073651,14.7330635 L67.9330794,14.0395714 L69.7787937,18.286873 L69.9649841,12.5635397 C72.703873,7.41226984 69.9191111,3.82338095 68.146254,2.75211111 C66.3706984,1.68084127 56.710381,3.02195238 56.710381,3.02195238 C44.9291111,-4.80614286 33.7199048,4.98909524 31.348,5.52068254 C28.9760952,6.05226984 24.4400635,2.34465079 23.4740317,1.73211111 C22.508,1.11957143 22.0492698,1.92369841 22.0492698,1.92369841 C20.2386349,6.09814286 23.652127,16.1875079 23.652127,16.1875079 C9.13466667,21.8622698 3.38165079,28.0308413 1.17974603,31.4713175 C2.80149206,29.2073492 5.44593651,27.7259206 8.44657143,27.7259206 C13.3819683,27.7259206 17.3810159,31.7276667 17.3810159,36.6630635 C17.3810159,39.026873 16.4608571,41.1721111 14.9632381,42.7695714 C15.028,42.7398889 15.0954603,42.7156032 15.1602222,42.688619 C17.8937143,40.1224286 21.566254,38.5438571 25.6111746,38.5438571 C34.0545079,38.5438571 40.8976825,45.3870317 40.8976825,53.8303651 C40.8976825,57.2816349 39.7535556,60.4657619 37.8241905,63.0211587 C43.7364127,55.641 49.0253016,47.775127 52.6600635,45.7216349 C53.7637143,45.0983016 54.7135556,45.0119524 55.4826032,45.6325873 C59.6948254,49.0298889 67.4878413,49.3240159 69.813873,46.8846508 C72.1399048,44.4479841 71.1118095,41.2935397 70.6260952,40.8294127" id="Fill-123" fill="#DA392B"></path>
                        </g>
                        <text id="Leadleo.com" font-family="Arial-BoldItalicMT, Arial" font-size="14" font-style="italic" font-weight="bold" letter-spacing="-0.435897" fill="#DA392B">
                            <tspan x="89" y="63">Leadleo.com</tspan>
                        </text>
                    </g>
                </g>
            </g>
        </g>
    </g>
</svg>